<svg xmlns="http://www.w3.org/2000/svg" xmlns:xlink="http://www.w3.org/1999/xlink" width="1280" zoomAndPan="magnify" viewBox="0 0 960 599.999999" height="800" preserveAspectRatio="xMidYMid meet" version="1.0"><path fill="#fae1a3" d="M -2.304688 862.101562 C -24.875 836.53125 -36.925781 803.515625 -46.792969 770.847656 C -72.921875 684.179688 -90.136719 587.667969 -11.75 522.402344 C 28.082031 489.246094 79.988281 473.613281 131.503906 468.167969 C 183.015625 462.722656 235.019531 466.679688 286.789062 468.355469 C 341.394531 470.121094 396.28125 469.355469 450.425781 476.660156 C 493.304688 482.453125 535.394531 493.296875 578.253906 499.230469 C 645.03125 508.488281 712.828125 505.789062 779.816406 500.300781 C 833.445312 495.878906 870.671875 477.660156 923.953125 500.996094 C 971.558594 521.867188 1007.320312 564.867188 1026.679688 613.097656 C 1046.035156 661.332031 1050.269531 714.519531 1047.105469 766.40625 C 1046.292969 779.761719 1044.917969 793.417969 1039.148438 805.515625 C 1033.191406 817.964844 1022.933594 827.921875 1011.625 835.832031 C 986.777344 853.214844 956.832031 861.613281 927.074219 867.382812 C 877.792969 876.945312 827.511719 880.039062 777.371094 882.648438 C 608.40625 891.417969 439.140625 894.628906 269.941406 892.257812 C 182.0625 891 66.03125 939.535156 -2.304688 862.101562 Z M -2.304688 862.101562 " fill-opacity="1" fill-rule="nonzero"/></svg>