<svg width="100%" height="100%" viewBox="0 0 1200 120" xmlns="http://www.w3.org/2000/svg" preserveAspectRatio="none">
  <path d="M0,0 
           C100,50 200,100 300,50 
           C400,0 500,50 600,0 
           C700,-50 800,0 900,50 
           C1000,100 1100,50 1200,0 
           C1300,-50 1400,0 1500,50 
           C1600,100 1700,50 1800,0 
           C1900,-50 2000,0 2100,50 
           C2200,100 2300,50 2400,0 
           C2500,-50 2600,0 2700,50 
           C2800,100 2900,50 3000,0 
           L3000,120 L0,120 Z" fill="#F2D5A0"></path>
</svg>

